<svg id="Layer_1" data-name="Layer 1" xmlns="http://www.w3.org/2000/svg" viewBox="0 0 950 1080"><defs><style>.cls-1{fill:#0064ff;}.cls-2{fill:#fff;}</style></defs><title>Profile</title><rect class="cls-1" y="-0.4" width="950" height="133.59"/><path class="cls-2" d="M215.6,20.3h12.5L222.7,57c-.9,5.7-3.3,10.2-7.1,13.3a20.7,20.7,0,0,1-13.8,4.8c-5.8,0-10.4-1.5-13.6-4.4s-4.3-7.2-3.4-12.7v-.2h12.3c-.4,2.8-.1,4.7,1.1,5.9a6.5,6.5,0,0,0,5,1.8,5.8,5.8,0,0,0,4.3-2.3,12.1,12.1,0,0,0,2.5-6.2Z"/><path class="cls-2" d="M229.3,53.9c.9-6.3,3.3-11.2,7.2-14.9s9-5.6,15.2-5.6,10.3,2,13.3,5.8,4,8.7,3.1,14.7v.8c-1,6.2-3.4,11.2-7.3,14.9s-9,5.5-15.1,5.5-10.4-1.9-13.4-5.7-4-8.7-3.1-14.7Zm12.4.8a15.7,15.7,0,0,0,.3,8c.8,1.8,2.5,2.8,5,2.8a6.6,6.6,0,0,0,5.6-3,17.5,17.5,0,0,0,2.9-7.8v-.8c.5-3.4.4-6-.4-7.9s-2.4-2.9-4.9-2.9a6.6,6.6,0,0,0-5.7,3,17.2,17.2,0,0,0-2.8,7.8Z"/><path class="cls-2" d="M287.8,39.6a16.8,16.8,0,0,1,5.5-4.5,14.5,14.5,0,0,1,6.7-1.7c3.8,0,6.6,1.4,8.5,4.1s2.4,6.9,1.6,12.7l-3.7,24.1H293.9l3.6-24.2c.4-2.6.3-4.4-.3-5.5a3.8,3.8,0,0,0-3.4-1.5,9.4,9.4,0,0,0-3.7.7,10.2,10.2,0,0,0-3,2.1l-4.3,28.4H270.3l6.1-40.1h11.7Z"/><path class="cls-2" d="M336.5,74.3a11.1,11.1,0,0,1-.8-2.9,16.9,16.9,0,0,1-.3-3.3,19.6,19.6,0,0,1-4.8,5.1,10.4,10.4,0,0,1-6.5,1.9c-4,0-7.1-1.1-9.2-3.3s-2.8-5.1-2.3-8.8a12.9,12.9,0,0,1,5.8-9.3c3.3-2.1,8-3.2,14.2-3.2h5.1l.5-2.8a5.4,5.4,0,0,0-.7-4c-.6-.9-1.8-1.3-3.5-1.3a4.5,4.5,0,0,0-5,4.2H316.9v-.2a12.8,12.8,0,0,1,6-9.3c3.5-2.4,8-3.6,13.3-3.6s8.6,1.3,11.4,3.8,3.9,6,3.2,10.6l-2.3,15.1a32.3,32.3,0,0,0-.4,6,26.5,26.5,0,0,0,.9,5.4Zm-7.6-8.1a9.2,9.2,0,0,0,7.1-3.7l.7-5.3h-5a6.4,6.4,0,0,0-4.5,1.5,5.9,5.9,0,0,0-2,3.6,3.2,3.2,0,0,0,.8,2.8A3.8,3.8,0,0,0,328.9,66.2Z"/><path class="cls-2" d="M375.5,24.2l-1.5,10h6.3L379,42.9h-6.3l-2.8,18.4c-.2,1.5-.1,2.5.4,3.1a2.7,2.7,0,0,0,2.2.9h1.6l1.5-.3-.5,9.3-3.5.7-3.7.2c-3.9,0-6.9-1.1-8.8-3.3s-2.4-5.7-1.7-10.5l2.7-18.4h-5.6l1.3-8.7h5.6l1.6-10Z"/><path class="cls-2" d="M397.9,38.9a16.1,16.1,0,0,1,5-4.1,13.9,13.9,0,0,1,6-1.4c4,0,7,1.5,9,4.4s2.6,7.4,1.7,13.5l-3.5,23H403.6l3.5-23.1c.4-3.2.4-5.4-.3-6.5a3.4,3.4,0,0,0-3.3-1.6,10.6,10.6,0,0,0-3.7.6,9.7,9.7,0,0,0-2.9,1.9l-4.3,28.7H380l8.7-57.9h12.6Z"/><path class="cls-2" d="M446.3,74.3a11.2,11.2,0,0,1-.7-2.9,16.9,16.9,0,0,1-.3-3.3,19.6,19.6,0,0,1-4.8,5.1,10.8,10.8,0,0,1-6.5,1.9c-4.1,0-7.2-1.1-9.2-3.3s-2.9-5.1-2.3-8.8a12.6,12.6,0,0,1,5.8-9.3c3.2-2.1,8-3.2,14.1-3.2h5.2l.4-2.8a5,5,0,0,0-.6-4c-.7-.9-1.9-1.3-3.6-1.3a4.8,4.8,0,0,0-3.3,1,4.7,4.7,0,0,0-1.6,3.2H426.7v-.2a12.6,12.6,0,0,1,5.9-9.3c3.6-2.4,8-3.6,13.4-3.6s8.6,1.3,11.4,3.8,3.8,6,3.1,10.6l-2.2,15.1a25.5,25.5,0,0,0-.4,6,35.3,35.3,0,0,0,.8,5.4Zm-7.6-8.1a8.8,8.8,0,0,0,4.2-1.1,8.3,8.3,0,0,0,2.9-2.6l.8-5.3h-5.1a6.4,6.4,0,0,0-4.5,1.5,5.8,5.8,0,0,0-1.9,3.6,2.9,2.9,0,0,0,.7,2.8A4,4,0,0,0,438.7,66.2Z"/><path class="cls-2" d="M480.6,39.6a17.1,17.1,0,0,1,5.6-4.5,14.2,14.2,0,0,1,6.7-1.7c3.8,0,6.6,1.4,8.5,4.1s2.4,6.9,1.5,12.7l-3.6,24.1H486.8l3.6-24.2c.4-2.6.3-4.4-.4-5.5a3.6,3.6,0,0,0-3.3-1.5,8.7,8.7,0,0,0-3.7.7,8.1,8.1,0,0,0-3,2.1l-4.3,28.4H463.2l6-40.1H481Z"/><path class="cls-2" d="M541.1,55.8l-2.8,18.5H525.8l8.1-54h20.6c6.2,0,11,1.7,14.3,5s4.7,7.5,4,12.8a19.6,19.6,0,0,1-7.6,13c-4.2,3.1-9.5,4.7-16,4.7Zm1.4-9.6h8.2a9.6,9.6,0,0,0,6.5-2.3,8.9,8.9,0,0,0,3-5.7,7.4,7.4,0,0,0-1.2-6c-1.2-1.5-3.2-2.2-5.9-2.2H545Z"/><path class="cls-2" d="M590.7,75.1c-5.8,0-10.2-1.8-13.2-5.6s-4.1-8.3-3.3-13.9l.2-1.4c.9-6.4,3.3-11.4,7.1-15.2s8.8-5.6,15-5.6,9.1,1.7,11.7,5,3.5,7.7,2.7,13.2l-1,6.6H586.8v.2a6.8,6.8,0,0,0,1.6,5.2,7.6,7.6,0,0,0,5.6,1.9,26.4,26.4,0,0,0,6-.6c1.8-.5,3.7-1.1,5.8-1.9l1.9,7.6a26.9,26.9,0,0,1-7.4,3.2A33.5,33.5,0,0,1,590.7,75.1Zm4.3-32a5.9,5.9,0,0,0-4.6,1.9,12.2,12.2,0,0,0-2.5,5.1v.3h10.8v-1a8,8,0,0,0-.3-4.8Q597.7,43.1,595,43.1Z"/><path class="cls-2" d="M639.4,44.9h-4.1a6.9,6.9,0,0,0-3.6.9,6.1,6.1,0,0,0-2.5,2.3l-3.9,26.3H612.8l6-40.1h11.8l-.4,5.5h.1a14.2,14.2,0,0,1,3.9-4.7,8.5,8.5,0,0,1,5.1-1.7l1.5.2a3.5,3.5,0,0,1,1.4.3Z"/><path class="cls-2" d="M656.5,75.1c-5.8,0-10.2-1.8-13.2-5.6s-4.2-8.3-3.3-13.9l.2-1.4c.9-6.4,3.3-11.4,7.1-15.2s8.8-5.6,15-5.6,9.1,1.7,11.7,5,3.5,7.7,2.7,13.2l-1,6.6H652.6v.2a6.8,6.8,0,0,0,1.6,5.2,7.6,7.6,0,0,0,5.6,1.9,26.4,26.4,0,0,0,6-.6c1.8-.5,3.7-1.1,5.8-1.9l1.9,7.6a26.4,26.4,0,0,1-7.5,3.2A32.4,32.4,0,0,1,656.5,75.1Zm4.3-32a5.9,5.9,0,0,0-4.6,1.9,12.2,12.2,0,0,0-2.5,5.1v.3h10.8v-1a7.1,7.1,0,0,0-.4-4.8C663.8,43.6,662.6,43.1,660.8,43.1Z"/><path class="cls-2" d="M691.7,74.3H679.1l6-40.1h12.6Zm7.4-49.4H686.5l1.3-8.5h12.6Z"/><path class="cls-2" d="M726,44.9h-4.1a7.2,7.2,0,0,0-6.1,3.2l-3.9,26.3H699.4l6-40.1h11.8l-.4,5.5h.2a12.9,12.9,0,0,1,3.8-4.7,8.7,8.7,0,0,1,5.1-1.7l1.5.2a3.2,3.2,0,0,1,1.4.3Z"/><path class="cls-2" d="M749.3,74.3a17.7,17.7,0,0,1-.7-2.9,16.9,16.9,0,0,1-.3-3.3,19.6,19.6,0,0,1-4.8,5.1,10.6,10.6,0,0,1-6.5,1.9c-4.1,0-7.1-1.1-9.2-3.3s-2.9-5.1-2.3-8.8a12.6,12.6,0,0,1,5.8-9.3c3.3-2.1,8-3.2,14.2-3.2h5.1l.5-2.8a5.4,5.4,0,0,0-.7-4c-.6-.9-1.8-1.3-3.5-1.3a5.1,5.1,0,0,0-3.4,1,4.7,4.7,0,0,0-1.6,3.2H729.8v-.2q.6-5.7,6-9.3c3.5-2.4,8-3.6,13.3-3.6s8.6,1.3,11.4,3.8,3.9,6,3.2,10.6l-2.3,15.1a32.3,32.3,0,0,0-.4,6,35.3,35.3,0,0,0,.8,5.4Zm-7.6-8.1a8.8,8.8,0,0,0,4.2-1.1,8.3,8.3,0,0,0,2.9-2.6l.8-5.3h-5a6.4,6.4,0,0,0-4.5,1.5,5.9,5.9,0,0,0-2,3.6,2.9,2.9,0,0,0,.8,2.8A3.6,3.6,0,0,0,741.7,66.2Z"/><path class="cls-2" d="M275.8,108h0a4.2,4.2,0,0,1-1.3,3.4,5.2,5.2,0,0,1-3.6,1.1,4.6,4.6,0,0,1-3.8-1.7,6.9,6.9,0,0,1-1.4-4.5v-2.1a7.4,7.4,0,0,1,1.4-4.6,4.9,4.9,0,0,1,3.8-1.7,5.2,5.2,0,0,1,3.6,1.2,4,4,0,0,1,1.3,3.3h-.5a3.8,3.8,0,0,0-1.2-3,4.6,4.6,0,0,0-3.2-1.1,4.4,4.4,0,0,0-3.4,1.6,6.6,6.6,0,0,0-1.2,4.1v2.2a6.5,6.5,0,0,0,1.2,4.1,4.1,4.1,0,0,0,3.4,1.6,4.6,4.6,0,0,0,3.2-1,3.8,3.8,0,0,0,1.2-3Z"/><path class="cls-2" d="M278.1,106.8a6,6,0,0,1,1.3-3.8,4.6,4.6,0,0,1,3.4-1.4,4.5,4.5,0,0,1,3.3,1.4,5.5,5.5,0,0,1,1.3,3.8v.5a5.5,5.5,0,0,1-1.3,3.8,4.5,4.5,0,0,1-3.3,1.4,4.6,4.6,0,0,1-3.4-1.4,6,6,0,0,1-1.3-3.8Zm.6.5a4.7,4.7,0,0,0,1.1,3.3,3.4,3.4,0,0,0,3,1.4,3.6,3.6,0,0,0,2.9-1.4,4.8,4.8,0,0,0,1.2-3.3v-.5a4.8,4.8,0,0,0-1.2-3.3,3.6,3.6,0,0,0-2.9-1.4,3.6,3.6,0,0,0-3,1.4,4.7,4.7,0,0,0-1.1,3.3Z"/><path class="cls-2" d="M290.3,101.8v2.1a3.7,3.7,0,0,1,1.3-1.7,3.8,3.8,0,0,1,2.2-.6,3.2,3.2,0,0,1,2.2.7,3.1,3.1,0,0,1,1.2,2.1,3.9,3.9,0,0,1,1.4-2.1,3.5,3.5,0,0,1,2.3-.7,3.1,3.1,0,0,1,2.7,1.1,6,6,0,0,1,.9,3.6v6H304v-6a4.9,4.9,0,0,0-.8-3.3,2.8,2.8,0,0,0-2.2-.9,3.3,3.3,0,0,0-2.5.9,6.4,6.4,0,0,0-1.1,2.5.8.8,0,0,1,.1.4v6.4h-.6v-5.4h0v-.7a5.1,5.1,0,0,0-.8-3.2,2.8,2.8,0,0,0-2.2-.9,3,3,0,0,0-2.4.9,4.4,4.4,0,0,0-1.1,2.4v6.9h-.6v-5.4h0v-5.1Z"/><path class="cls-2" d="M315.9,107.2a6.3,6.3,0,0,1-1,3.9,3.3,3.3,0,0,1-2.9,1.4,4.8,4.8,0,0,1-2.2-.4,3.8,3.8,0,0,1-1.4-1.4v5.7h-.6v-7h0v-4.3h0v-3.2h.5v1.8a4,4,0,0,1,1.4-1.5,4.6,4.6,0,0,1,2.1-.5,3.4,3.4,0,0,1,3,1.5,6.4,6.4,0,0,1,1,3.9Zm-.5-.2a6.3,6.3,0,0,0-.9-3.5,2.9,2.9,0,0,0-2.6-1.4,3,3,0,0,0-2.3.8,3.6,3.6,0,0,0-1.2,1.8v5.1a3.3,3.3,0,0,0,1.3,1.6,4.1,4.1,0,0,0,2.3.6,2.8,2.8,0,0,0,2.5-1.3,5.8,5.8,0,0,0,.9-3.5Z"/><path class="cls-2" d="M325.9,110.5a5,5,0,0,1-1.4,1.5,4.3,4.3,0,0,1-2.3.5,2.8,2.8,0,0,1-2.5-1.1,6,6,0,0,1-.9-3.6v-6h.5v6a4.9,4.9,0,0,0,.8,3.2,2.4,2.4,0,0,0,2.1,1,3.7,3.7,0,0,0,2.5-.8,3.7,3.7,0,0,0,1.2-2.1v-7.3h.5V108h0v4.3H326Z"/><path class="cls-2" d="M330.8,98.9v2.9h2.6v.5h-2.6v7.3a3.1,3.1,0,0,0,.5,1.9,1.6,1.6,0,0,0,1.1.5h1.1v.5h-1.1a1.8,1.8,0,0,1-1.6-.7,3.2,3.2,0,0,1-.6-2.2v-7.3h-2v-.5h2V98.9Z"/><path class="cls-2" d="M339.6,112.5a3.8,3.8,0,0,1-3.1-1.4,5.2,5.2,0,0,1-1.3-3.6v-.7a5.1,5.1,0,0,1,1.3-3.7,4.1,4.1,0,0,1,6-.4,4.7,4.7,0,0,1,1,3.2v.8h-7.8v.7a5.2,5.2,0,0,0,1.1,3.2,3.4,3.4,0,0,0,2.8,1.3,4.8,4.8,0,0,0,1.8-.3,5.6,5.6,0,0,0,1.5-1l.2.4a3,3,0,0,1-1.4,1A4.6,4.6,0,0,1,339.6,112.5Zm.1-10.4a3.7,3.7,0,0,0-2.7,1.1,5,5,0,0,0-1.2,2.9H343v-.4a3.9,3.9,0,0,0-.9-2.6A3,3,0,0,0,339.7,102.1Z"/><path class="cls-2" d="M350.7,102.1H350a3.2,3.2,0,0,0-2.3.9,5.3,5.3,0,0,0-1.1,2.4v6.9h-.5V101.8h.4V104a3.5,3.5,0,0,1,1.3-1.8,3.7,3.7,0,0,1,2.1-.6h.8Z"/><path class="cls-2" d="M365.2,105.2h-6.9v6.6h7.9v.5h-8.4V98.1h8.4v.5h-7.9v6.1h6.9Z"/><path class="cls-2" d="M369,101.8v2.1a3.9,3.9,0,0,1,1.4-1.7,4,4,0,0,1,2.2-.6,2.8,2.8,0,0,1,2.6,1.1,5.1,5.1,0,0,1,.9,3.4v6.2h-.5v-6.2a4.8,4.8,0,0,0-.8-3.1,2.6,2.6,0,0,0-2.1-.9,3.3,3.3,0,0,0-2.6,1,4.5,4.5,0,0,0-1.1,2.5v6.7h-.5v-5.4h-.1v-5.1Z"/><path class="cls-2" d="M379,107a6.5,6.5,0,0,1,1.1-3.9,3.4,3.4,0,0,1,2.9-1.5,3.8,3.8,0,0,1,3.6,2.1v-1.9h.4V105h0v4.3h0v3a4.3,4.3,0,0,1-1,3.1,4.2,4.2,0,0,1-3,1.1l-1.6-.2-1.4-.4v-.5l1.4.4,1.5.2a3.3,3.3,0,0,0,2.6-1,3.7,3.7,0,0,0,.9-2.7v-1.7a5,5,0,0,1-1.5,1.4,4.6,4.6,0,0,1-2.1.4,3.3,3.3,0,0,1-2.9-1.4,6.2,6.2,0,0,1-1.1-3.9Zm.6.2a6.7,6.7,0,0,0,.8,3.5A2.9,2.9,0,0,0,383,112a3.8,3.8,0,0,0,2.2-.6,3.6,3.6,0,0,0,1.4-1.6v-5.1a4.6,4.6,0,0,0-1.3-1.8,2.8,2.8,0,0,0-2.3-.8,3,3,0,0,0-2.6,1.4,7.2,7.2,0,0,0-.8,3.5Z"/><path class="cls-2" d="M391.1,98.4h-.5V97.1h.5Zm0,13.9h-.5V101.8h.5Z"/><path class="cls-2" d="M395,101.8v2.1a3.9,3.9,0,0,1,1.4-1.7,4.1,4.1,0,0,1,2.3-.6,3,3,0,0,1,2.6,1.1,5.8,5.8,0,0,1,.8,3.4v6.2h-.5v-6.2a4.8,4.8,0,0,0-.8-3.1,2.6,2.6,0,0,0-2.1-.9,3.3,3.3,0,0,0-2.6,1,4.5,4.5,0,0,0-1.1,2.5v6.7h-.5v-5.4h0v-5.1Z"/><path class="cls-2" d="M409.2,112.5a3.8,3.8,0,0,1-3.1-1.4,5.2,5.2,0,0,1-1.3-3.6v-.7a5.1,5.1,0,0,1,1.3-3.7,3.9,3.9,0,0,1,3.2-1.5,3.8,3.8,0,0,1,2.8,1.1,4.7,4.7,0,0,1,1,3.2v.8h-7.8v.7a5.2,5.2,0,0,0,1.1,3.2,3.5,3.5,0,0,0,2.8,1.3,5.8,5.8,0,0,0,1.9-.3,7.1,7.1,0,0,0,1.4-1l.3.4a4,4,0,0,1-1.5,1A4.6,4.6,0,0,1,409.2,112.5Zm.1-10.4a3.7,3.7,0,0,0-2.7,1.1,5,5,0,0,0-1.2,2.9h7.2v-.4a3.9,3.9,0,0,0-.9-2.6A3,3,0,0,0,409.3,102.1Z"/><path class="cls-2" d="M419.4,112.5a4,4,0,0,1-3.2-1.4,5.7,5.7,0,0,1-1.3-3.6v-.7a5.5,5.5,0,0,1,1.3-3.7,4.1,4.1,0,0,1,3.2-1.5,3.8,3.8,0,0,1,2.8,1.1,4.8,4.8,0,0,1,1.1,3.2v.8h-7.8v.7a4.6,4.6,0,0,0,1.1,3.2,3.3,3.3,0,0,0,2.8,1.3,5.7,5.7,0,0,0,1.8-.3,3.9,3.9,0,0,0,1.4-1l.3.4a3.6,3.6,0,0,1-1.4,1A4.6,4.6,0,0,1,419.4,112.5Zm0-10.4a3.7,3.7,0,0,0-2.7,1.1,4.4,4.4,0,0,0-1.1,2.9h7.1v-.4a3.8,3.8,0,0,0-.8-2.6A3.1,3.1,0,0,0,419.4,102.1Z"/><path class="cls-2" d="M430.5,102.1h-.7a3.2,3.2,0,0,0-2.3.9,3.8,3.8,0,0,0-1.1,2.4v6.9h-.6V101.8h.5V104a3,3,0,0,1,1.3-1.8,3.5,3.5,0,0,1,2.1-.6h.7Z"/><path class="cls-2" d="M443.8,109.7a2.6,2.6,0,0,0-.7-1.5,7.4,7.4,0,0,0-2.5-1.1,6.9,6.9,0,0,1-2.8-1,2.3,2.3,0,0,1-.8-1.9,2.5,2.5,0,0,1,.9-1.9,4.2,4.2,0,0,1,2.6-.7,4.1,4.1,0,0,1,2.8.8,2.4,2.4,0,0,1,.9,2.1h-.4a2.3,2.3,0,0,0-.9-1.8,3.6,3.6,0,0,0-2.4-.7,3.4,3.4,0,0,0-2.2.6,2.2,2.2,0,0,0-.8,1.5,1.8,1.8,0,0,0,.6,1.4,6.4,6.4,0,0,0,2.6,1.1,5.6,5.6,0,0,1,2.7,1.1,2.4,2.4,0,0,1,.9,2,2.3,2.3,0,0,1-1,2,4.5,4.5,0,0,1-2.7.7,4.3,4.3,0,0,1-2.9-.8,2.3,2.3,0,0,1-1-2h.5a2.1,2.1,0,0,0,1,1.9,6,6,0,0,0,2.4.5,3.3,3.3,0,0,0,2.3-.7A1.9,1.9,0,0,0,443.8,109.7Z"/><path class="cls-2" d="M455.3,107.2a6.3,6.3,0,0,1-1,3.9,3.3,3.3,0,0,1-2.9,1.4,4.8,4.8,0,0,1-2.2-.4,3.8,3.8,0,0,1-1.4-1.4v5.7h-.5v-7h-.1v-4.3h.1v-3.2h.4v1.8a4,4,0,0,1,1.4-1.5,4.6,4.6,0,0,1,2.1-.5,3.4,3.4,0,0,1,3,1.5,6.4,6.4,0,0,1,1,3.9Zm-.5-.2a6.3,6.3,0,0,0-.9-3.5,2.9,2.9,0,0,0-2.5-1.4,3.2,3.2,0,0,0-2.4.8,3.6,3.6,0,0,0-1.2,1.8v5.1a3.3,3.3,0,0,0,1.3,1.6,4.1,4.1,0,0,0,2.3.6,2.8,2.8,0,0,0,2.5-1.3,5.8,5.8,0,0,0,.9-3.5Z"/><path class="cls-2" d="M461.9,112.5a3.8,3.8,0,0,1-3.1-1.4,5.2,5.2,0,0,1-1.3-3.6v-.7a5.5,5.5,0,0,1,1.2-3.7,4.2,4.2,0,0,1,3.2-1.5,4,4,0,0,1,2.9,1.1,5.3,5.3,0,0,1,1,3.2v.8H458v.7a5.2,5.2,0,0,0,1.1,3.2,3.4,3.4,0,0,0,2.8,1.3,5.7,5.7,0,0,0,1.8-.3,3.9,3.9,0,0,0,1.4-1l.3.4a3,3,0,0,1-1.4,1A4.6,4.6,0,0,1,461.9,112.5Zm0-10.4a3.6,3.6,0,0,0-2.6,1.1,5,5,0,0,0-1.2,2.9h7.2v-.4a3.9,3.9,0,0,0-.9-2.6A3.1,3.1,0,0,0,461.9,102.1Z"/><path class="cls-2" d="M471.9,112a4,4,0,0,0,2.4-.7,2.5,2.5,0,0,0,1-2.2h.5a2.9,2.9,0,0,1-1.2,2.5,4,4,0,0,1-2.7.9,3.5,3.5,0,0,1-3.1-1.4,6,6,0,0,1-1.2-3.8v-.5a6,6,0,0,1,1.2-3.8,3.8,3.8,0,0,1,3.1-1.4,4.5,4.5,0,0,1,2.8.9,3.7,3.7,0,0,1,1.1,2.7h-.5a3,3,0,0,0-1-2.4,3.6,3.6,0,0,0-2.4-.8,3.2,3.2,0,0,0-2.8,1.3,6.2,6.2,0,0,0-1,3.4v.5a6,6,0,0,0,1,3.4A3.2,3.2,0,0,0,471.9,112Z"/><path class="cls-2" d="M479.1,98.4h-.5V97.1h.5Zm0,13.9h-.5V101.8h.5Z"/><path class="cls-2" d="M489.2,110.4a3.9,3.9,0,0,1-1.6,1.5,5.3,5.3,0,0,1-2.6.6,2.8,2.8,0,0,1-2.3-.8,2.6,2.6,0,0,1-.9-2.1,2.9,2.9,0,0,1,1.3-2.3,5.2,5.2,0,0,1,3.1-.9h3v-1.5a2.5,2.5,0,0,0-.8-2.1,3.6,3.6,0,0,0-2.4-.7,3.5,3.5,0,0,0-2.3.7,2.3,2.3,0,0,0-.9,1.8h-.4a2.5,2.5,0,0,1,.9-2.1,4.6,4.6,0,0,1,2.7-.8,4.1,4.1,0,0,1,2.7.8,3.1,3.1,0,0,1,1.1,2.5v6.4c.1.3.1.7.2,1h-.5a5.8,5.8,0,0,1-.2-1c0-.2-.1-.5-.1-.8ZM485,112a4.4,4.4,0,0,0,2.6-.7,3.2,3.2,0,0,0,1.6-2V107h-2.9a4.9,4.9,0,0,0-2.8.7,2.2,2.2,0,0,0-1.1,1.9,2.1,2.1,0,0,0,.7,1.7A2.5,2.5,0,0,0,485,112Z"/><path class="cls-2" d="M493.8,112.3h-.5V97.1h.5Z"/><path class="cls-2" d="M497.9,98.4h-.5V97.1h.5Zm0,13.9h-.5V101.8h.5Z"/><path class="cls-2" d="M501.3,111.8h7.5v.5h-8.2v-.4l6.9-9.6h-6.6v-.5h7.3v.4Z"/><path class="cls-2" d="M514.5,112.5a3.8,3.8,0,0,1-3.1-1.4,5.2,5.2,0,0,1-1.3-3.6v-.7a5.5,5.5,0,0,1,1.2-3.7,4.3,4.3,0,0,1,3.3-1.5,3.9,3.9,0,0,1,2.8,1.1,4.7,4.7,0,0,1,1,3.2v.8h-7.8v.7a5.2,5.2,0,0,0,1.1,3.2,3.4,3.4,0,0,0,2.8,1.3,5.7,5.7,0,0,0,1.8-.3,5.6,5.6,0,0,0,1.5-1l.2.4a3,3,0,0,1-1.4,1A4.6,4.6,0,0,1,514.5,112.5Zm.1-10.4a3.7,3.7,0,0,0-2.7,1.1,5,5,0,0,0-1.2,2.9h7.2v-.4a3.9,3.9,0,0,0-.9-2.6A3,3,0,0,0,514.6,102.1Z"/><path class="cls-2" d="M520.5,107a6.4,6.4,0,0,1,1-3.9,3.4,3.4,0,0,1,2.9-1.5,4.8,4.8,0,0,1,2.2.5,4,4,0,0,1,1.4,1.5V97.1h.6V105h0v4.3h0v2.9H528v-1.6a2.9,2.9,0,0,1-1.4,1.3,3.8,3.8,0,0,1-2.2.5,3.3,3.3,0,0,1-2.9-1.4,6.3,6.3,0,0,1-1-3.9Zm.5.2a5.8,5.8,0,0,0,.9,3.5,2.8,2.8,0,0,0,2.5,1.3,4.1,4.1,0,0,0,2.3-.6,3.1,3.1,0,0,0,1.3-1.7v-5a3.6,3.6,0,0,0-1.2-1.8,3.6,3.6,0,0,0-2.4-.8,2.9,2.9,0,0,0-2.5,1.4,6.3,6.3,0,0,0-.9,3.5Z"/><path class="cls-2" d="M537.3,98.4h-.5V97.1h.5Zm0,13.9h-.5V101.8h.5Z"/><path class="cls-2" d="M541.3,101.8v2.1a3.9,3.9,0,0,1,1.4-1.7,4.1,4.1,0,0,1,2.3-.6,3,3,0,0,1,2.6,1.1,5.2,5.2,0,0,1,.8,3.4v6.2h-.5v-6.2c0-1.5-.2-2.5-.8-3.1a2.6,2.6,0,0,0-2.1-.9,2.9,2.9,0,0,0-2.5,1,4.5,4.5,0,0,0-1.2,2.5v6.7h-.5v-5.4h0v-5.1Z"/><path class="cls-2" d="M564.2,105.2h-6.9v6.6h7.9v.5h-8.4V98.1h8.4v.5h-7.9v6.1h6.9Z"/><path class="cls-2" d="M567.9,101.8v2.1a3.9,3.9,0,0,1,1.4-1.7,3.7,3.7,0,0,1,2.1-.6,3.1,3.1,0,0,1,2.2.7,3.1,3.1,0,0,1,1.2,2.1,4.6,4.6,0,0,1,1.4-2.1,3.6,3.6,0,0,1,2.4-.7,3,3,0,0,1,2.6,1.1,6,6,0,0,1,.9,3.6v6h-.5v-6a5.5,5.5,0,0,0-.8-3.3,2.9,2.9,0,0,0-2.2-.9,3.3,3.3,0,0,0-2.5.9,5.2,5.2,0,0,0-1.1,2.5v6.8h-.5v-5.4h0v-.7a4.5,4.5,0,0,0-.9-3.2,2.6,2.6,0,0,0-2.1-.9,3.3,3.3,0,0,0-2.5.9,5.3,5.3,0,0,0-1.1,2.4v6.9h-.5v-5.4h0v-5.1Z"/><path class="cls-2" d="M593.6,107.2a6.2,6.2,0,0,1-1.1,3.9,3.3,3.3,0,0,1-2.9,1.4,4.2,4.2,0,0,1-2.2-.5,2.9,2.9,0,0,1-1.4-1.3v1.6h-.4v-2.8h0v-4.3h0V97.1h.5v6.5a5,5,0,0,1,1.4-1.5,5.1,5.1,0,0,1,2.2-.5,3.4,3.4,0,0,1,2.9,1.5,6.5,6.5,0,0,1,1.1,3.9Zm-.6-.2a6.3,6.3,0,0,0-.9-3.5,2.7,2.7,0,0,0-2.5-1.4,3.2,3.2,0,0,0-2.4.8,5.7,5.7,0,0,0-1.2,1.8v5.1a4,4,0,0,0,1.3,1.6,4.1,4.1,0,0,0,2.3.6,2.9,2.9,0,0,0,2.6-1.3,6.7,6.7,0,0,0,.8-3.5Z"/><path class="cls-2" d="M600.1,112.5a3.8,3.8,0,0,1-3.1-1.4,5.2,5.2,0,0,1-1.3-3.6v-.7a5.1,5.1,0,0,1,1.3-3.7,3.9,3.9,0,0,1,3.2-1.5,3.8,3.8,0,0,1,2.8,1.1,4.7,4.7,0,0,1,1,3.2v.8h-7.8v.7a5.2,5.2,0,0,0,1.1,3.2,3.5,3.5,0,0,0,2.8,1.3,5.8,5.8,0,0,0,1.9-.3,7.1,7.1,0,0,0,1.4-1l.3.4a4,4,0,0,1-1.5,1A4.6,4.6,0,0,1,600.1,112.5Zm.1-10.4a3.7,3.7,0,0,0-2.7,1.1,5,5,0,0,0-1.2,2.9h7.2v-.4a3.9,3.9,0,0,0-.9-2.6A3,3,0,0,0,600.2,102.1Z"/><path class="cls-2" d="M606.1,107a6.5,6.5,0,0,1,1.1-3.9,3.3,3.3,0,0,1,2.9-1.5,4.6,4.6,0,0,1,2.1.5,5.4,5.4,0,0,1,1.5,1.5V97.1h.5V105h0v4.3h0v2.9h-.5v-1.6a3.7,3.7,0,0,1-1.5,1.3,3.6,3.6,0,0,1-2.1.5,3.4,3.4,0,0,1-3-1.4,6.3,6.3,0,0,1-1-3.9Zm.5.2a5.8,5.8,0,0,0,.9,3.5,2.8,2.8,0,0,0,2.6,1.3,3.8,3.8,0,0,0,2.2-.6,3.9,3.9,0,0,0,1.4-1.7v-5a4.6,4.6,0,0,0-1.3-1.8,3.2,3.2,0,0,0-2.3-.8,3,3,0,0,0-2.6,1.4,6.3,6.3,0,0,0-.9,3.5Z"/><path class="cls-2" d="M617,107a6.5,6.5,0,0,1,1.1-3.9,3.4,3.4,0,0,1,2.9-1.5,4.8,4.8,0,0,1,2.2.5,5,5,0,0,1,1.4,1.5V97.1h.5V105h0v4.3h0v2.9h-.5v-1.6a2.9,2.9,0,0,1-1.4,1.3,4.2,4.2,0,0,1-2.2.5,3.3,3.3,0,0,1-2.9-1.4,6.2,6.2,0,0,1-1.1-3.9Zm.6.2a5.8,5.8,0,0,0,.9,3.5A2.7,2.7,0,0,0,621,112a4.1,4.1,0,0,0,2.3-.6,3.7,3.7,0,0,0,1.3-1.7v-5a5.7,5.7,0,0,0-1.2-1.8,3.6,3.6,0,0,0-2.4-.8,2.7,2.7,0,0,0-2.5,1.4,6.3,6.3,0,0,0-.9,3.5Z"/><path class="cls-2" d="M632.2,112.5a4,4,0,0,1-3.2-1.4,5.6,5.6,0,0,1-1.2-3.6v-.7a5.5,5.5,0,0,1,1.2-3.7,4.1,4.1,0,0,1,3.2-1.5,3.8,3.8,0,0,1,2.8,1.1,4.8,4.8,0,0,1,1.1,3.2v.8h-7.8v.7a4.6,4.6,0,0,0,1.1,3.2,3.3,3.3,0,0,0,2.8,1.3l1.8-.3a3.9,3.9,0,0,0,1.4-1l.3.4a3.6,3.6,0,0,1-1.4,1A4.6,4.6,0,0,1,632.2,112.5Zm0-10.4a3.7,3.7,0,0,0-2.7,1.1,4.4,4.4,0,0,0-1.1,2.9h7.2v-.4a3.9,3.9,0,0,0-.9-2.6A3.1,3.1,0,0,0,632.2,102.1Z"/><path class="cls-2" d="M638.1,107a6.5,6.5,0,0,1,1.1-3.9,3.4,3.4,0,0,1,2.9-1.5,5.1,5.1,0,0,1,2.2.5,5,5,0,0,1,1.4,1.5V97.1h.5V105h0v4.3h0v2.9h-.5v-1.6a3.5,3.5,0,0,1-1.4,1.3,4.2,4.2,0,0,1-2.2.5,3.3,3.3,0,0,1-2.9-1.4,6.2,6.2,0,0,1-1.1-3.9Zm.6.2a5.8,5.8,0,0,0,.9,3.5,2.7,2.7,0,0,0,2.5,1.3,4.1,4.1,0,0,0,2.3-.6,3.7,3.7,0,0,0,1.3-1.7v-5a5.7,5.7,0,0,0-1.2-1.8,3.6,3.6,0,0,0-2.4-.8,2.7,2.7,0,0,0-2.5,1.4,6.3,6.3,0,0,0-.9,3.5Z"/><path class="cls-2" d="M663,109a2.3,2.3,0,0,0-1-2,11.1,11.1,0,0,0-3.4-1.5,10.5,10.5,0,0,1-3.5-1.6,2.6,2.6,0,0,1-1.2-2.4,3.1,3.1,0,0,1,1.4-2.6,6,6,0,0,1,6.8.1,3.7,3.7,0,0,1,1.2,3.1h-.4a3.4,3.4,0,0,0-1.2-2.6,4.4,4.4,0,0,0-3-1.1,5,5,0,0,0-3.1.9,2.6,2.6,0,0,0-1.1,2.2,2.5,2.5,0,0,0,.9,2,10,10,0,0,0,3.4,1.5,12.3,12.3,0,0,1,3.6,1.6,2.6,2.6,0,0,1,1.2,2.4,3.3,3.3,0,0,1-1.4,2.6,6.5,6.5,0,0,1-3.5.9,6.6,6.6,0,0,1-3.7-1,3.1,3.1,0,0,1-1.4-3.1h.4a3,3,0,0,0,1.4,2.8,6.3,6.3,0,0,0,3.3.9,5,5,0,0,0,3.1-.9A2.5,2.5,0,0,0,663,109Z"/><path class="cls-2" d="M669.1,110.4l.4,1.1h0v-.2l3.7-9.5h.5l-4.7,12.3a5.2,5.2,0,0,1-1,1.8c-.3.5-.9.7-1.8.7h-.7V116h.6a2,2,0,0,0,1.4-.5,3.5,3.5,0,0,0,.9-1.6l.7-1.7L665,101.8h.6Z"/><path class="cls-2" d="M682.3,109.7a2.1,2.1,0,0,0-.7-1.5,6.6,6.6,0,0,0-2.5-1.1,6.4,6.4,0,0,1-2.7-1,2.1,2.1,0,0,1-.9-1.9,2.6,2.6,0,0,1,1-1.9,4,4,0,0,1,2.6-.7,3.8,3.8,0,0,1,2.7.8,2.5,2.5,0,0,1,1,2.1h-.5a2.3,2.3,0,0,0-.9-1.8,3.2,3.2,0,0,0-2.3-.7,3.7,3.7,0,0,0-2.3.6,2.1,2.1,0,0,0-.7,1.5,1.8,1.8,0,0,0,.6,1.4,5.8,5.8,0,0,0,2.6,1.1,5.7,5.7,0,0,1,2.6,1.1,2.2,2.2,0,0,1,1,2,2.4,2.4,0,0,1-1.1,2,4.1,4.1,0,0,1-2.7.7,4.1,4.1,0,0,1-2.8-.8,2.1,2.1,0,0,1-1-2h.4a2.2,2.2,0,0,0,1.1,1.9,5.6,5.6,0,0,0,2.3.5,3.6,3.6,0,0,0,2.4-.7A2.1,2.1,0,0,0,682.3,109.7Z"/><path class="cls-2" d="M686.9,98.9v2.9h2.6v.5h-2.6v7.3a3.2,3.2,0,0,0,.4,1.9,1.7,1.7,0,0,0,1.2.5h1v.5h-1.1a1.9,1.9,0,0,1-1.6-.7,3.3,3.3,0,0,1-.5-2.2v-7.3h-2v-.5h2V98.9Z"/><path class="cls-2" d="M695.7,112.5a4,4,0,0,1-3.2-1.4,5.6,5.6,0,0,1-1.2-3.6v-.7a5.5,5.5,0,0,1,1.2-3.7,4.1,4.1,0,0,1,3.2-1.5,3.8,3.8,0,0,1,2.8,1.1,4.8,4.8,0,0,1,1.1,3.2v.8h-7.8v.7a4.6,4.6,0,0,0,1.1,3.2,3.3,3.3,0,0,0,2.8,1.3l1.8-.3a3.9,3.9,0,0,0,1.4-1l.3.4a3.6,3.6,0,0,1-1.4,1A4.6,4.6,0,0,1,695.7,112.5Zm0-10.4a3.7,3.7,0,0,0-2.7,1.1,4.9,4.9,0,0,0-1.1,2.9h7.2v-.4a3.9,3.9,0,0,0-.9-2.6A3.1,3.1,0,0,0,695.7,102.1Z"/><path class="cls-2" d="M702.5,101.8v2.1a3.9,3.9,0,0,1,1.4-1.7,3.5,3.5,0,0,1,2.1-.6,3.1,3.1,0,0,1,2.2.7,3.1,3.1,0,0,1,1.2,2.1,4.6,4.6,0,0,1,1.4-2.1,3.5,3.5,0,0,1,2.3-.7,3.1,3.1,0,0,1,2.7,1.1,6,6,0,0,1,.9,3.6v6h-.5v-6a4.8,4.8,0,0,0-.9-3.3,2.7,2.7,0,0,0-2.2-.9,3.1,3.1,0,0,0-2.4.9,4.4,4.4,0,0,0-1.1,2.5v6.8h-.5v-5.4h-.1v-.3c0-.2,0-.3.1-.4s-.3-2.6-.9-3.2a2.8,2.8,0,0,0-2.2-.9,3.1,3.1,0,0,0-2.4.9,5.3,5.3,0,0,0-1.1,2.4v6.9H702v-5.4h0v-5.1Z"/><path class="cls-2" d="M726.5,109.7a2.1,2.1,0,0,0-.7-1.5,6.6,6.6,0,0,0-2.5-1.1,6.4,6.4,0,0,1-2.7-1,2.1,2.1,0,0,1-.9-1.9,2.6,2.6,0,0,1,1-1.9,4,4,0,0,1,2.6-.7,3.8,3.8,0,0,1,2.7.8,2.5,2.5,0,0,1,1,2.1h-.5a2.3,2.3,0,0,0-.9-1.8,3.2,3.2,0,0,0-2.3-.7,3.7,3.7,0,0,0-2.3.6,2.1,2.1,0,0,0-.7,1.5,1.8,1.8,0,0,0,.6,1.4,5.8,5.8,0,0,0,2.6,1.1,6.1,6.1,0,0,1,2.7,1.1,2.4,2.4,0,0,1,.9,2,2.6,2.6,0,0,1-1,2,4.5,4.5,0,0,1-2.7.7,4.2,4.2,0,0,1-2.9-.8,2.1,2.1,0,0,1-1-2h.4a2.2,2.2,0,0,0,1.1,1.9,6,6,0,0,0,2.4.5,3.5,3.5,0,0,0,2.3-.7A1.8,1.8,0,0,0,726.5,109.7Z"/></svg>